<svg width="122.88" height="100.00000000000001" xmlns="http://www.w3.org/2000/svg" xml:space="preserve" version="1.1">
 <g>
  <title>Layer 1</title>
  <g stroke="null" id="svg_1">
   <path fill="#c91a52" id="svg_2" clip-rule="evenodd" fill-rule="evenodd" d="m101.16525,74.09831l-0.52047,-22.44063l-31.66187,10.65341c-2.85294,0.72969 -5.66733,1.07769 -8.42389,1.08892c-2.95896,0.01123 -5.86974,-0.35923 -8.73232,-1.08892l-30.24504,-10.76567l0,22.75496c0.86745,11.8209 29.9848,15.43565 38.91952,15.92959c7.16127,0.40413 35.44973,-3.95153 39.17012,-10.74321c0.79998,-1.48182 1.30117,-3.27797 1.49394,-5.38845l0,0l0.00001,0zm12.8286,-38.59474l0,27.42495l0.74215,0c0.51083,0 0.92528,0.48271 0.92528,1.07769l0,7.37544c0,0.58375 -0.41445,1.07769 -0.92528,1.07769l-0.74215,0l0,2.58196c0.94456,0.20207 1.66743,1.17872 1.66743,2.33499l0,0c0,1.30221 -0.92528,2.3799 -2.04332,2.3799l-3.65292,0c-1.11804,0 -2.04332,-1.06646 -2.04332,-2.3799l0,0c0,-1.15627 0.72287,-2.13293 1.66743,-2.33499l0,-2.58196l-0.74215,0c-0.50119,0 -0.92528,-0.48271 -0.92528,-1.07769l0,-7.37544c0,-0.59497 0.41445,-1.07769 0.92528,-1.07769l0.74215,0l0,-25.81964l-38.53399,13.9426c-6.97814,1.93086 -13.95628,2.06557 -20.93443,0l-42.53389,-14.78455l-3.84569,-1.33589c-4.79024,-2.27886 -3.59509,-7.63363 0.86745,-8.86848l48.10484,-16.72663c4.96373,-1.65021 9.91783,-1.90841 14.88156,0l47.23739,16.52457c5.13722,1.45937 6.14925,6.99375 0.17349,9.27262l-1.01202,0.37046l0,0l-0.00001,-0.00001z" class="st0"/>
  </g>
  <path transform="rotate(3.0956 57.4482 49.6629)" id="svg_3" d="m64.54799,23.36803l-29.5494,23.63635l27.87549,8.29102l-24.88883,23.58213l-10.58116,-4.16336l4.39459,26.43649l32.93524,-13.04022l-12.59258,-4.33392l34.1944,-35.41243l-31.25754,-6.41826l30.18422,-23.9299l-17.21765,-3.59295l19.4475,-16.24775l-7.86045,0.3347l-28.82368,21.35048l13.73987,3.50764l0,-0.00001l-0.00001,0l-0.00001,-0.00001z" fill="url(#svg_6)" stroke="#000000"/>
 </g>
 <defs>
  <linearGradient spreadMethod="pad" y2="1" x2="0.5" y1="0" x1="0.57422" id="svg_6">
   <stop offset="0" stop-opacity="0.99609" stop-color="#ff7f00"/>
   <stop offset="1" stop-opacity="0.98438" stop-color="#ffde3a"/>
  </linearGradient>
 </defs>
</svg>